<mxfile host="app.diagrams.net" agent="Mozilla/5.0 (Windows NT 10.0; Win64; x64) AppleWebKit/537.36 (KHTML, like Gecko) Chrome/129.0.0.0 Safari/537.36" version="24.8.0">
  <diagram name="Страница — 1" id="_AR-_C3QxWHEOY-qGWF0">
    <mxGraphModel dx="1050" dy="530" grid="1" gridSize="10" guides="1" tooltips="1" connect="1" arrows="1" fold="1" page="1" pageScale="1" pageWidth="2339" pageHeight="3300" math="0" shadow="0">
      <root>
        <mxCell id="0" />
        <mxCell id="1" parent="0" />
        <mxCell id="EwY4-3odsnmblzUQ6dtj-1" style="edgeStyle=orthogonalEdgeStyle;rounded=0;orthogonalLoop=1;jettySize=auto;html=1;exitX=0.5;exitY=1;exitDx=0;exitDy=0;entryX=0.5;entryY=0;entryDx=0;entryDy=0;" parent="1" source="EwY4-3odsnmblzUQ6dtj-2" target="EwY4-3odsnmblzUQ6dtj-4" edge="1">
          <mxGeometry relative="1" as="geometry">
            <mxPoint x="410" y="100" as="targetPoint" />
          </mxGeometry>
        </mxCell>
        <mxCell id="EwY4-3odsnmblzUQ6dtj-2" value="Start" style="ellipse;whiteSpace=wrap;html=1;" parent="1" vertex="1">
          <mxGeometry x="370" y="10" width="80" height="50" as="geometry" />
        </mxCell>
        <mxCell id="EwY4-3odsnmblzUQ6dtj-3" style="edgeStyle=orthogonalEdgeStyle;rounded=0;orthogonalLoop=1;jettySize=auto;html=1;" parent="1" source="EwY4-3odsnmblzUQ6dtj-4" edge="1">
          <mxGeometry relative="1" as="geometry">
            <mxPoint x="410" y="180" as="targetPoint" />
          </mxGeometry>
        </mxCell>
        <mxCell id="EwY4-3odsnmblzUQ6dtj-4" value="&lt;font face=&quot;Consolas, Courier New, monospace&quot;&gt;&lt;span style=&quot;font-size: 14px; white-space: pre;&quot;&gt;string weather;&lt;/span&gt;&lt;/font&gt;" style="rounded=0;whiteSpace=wrap;html=1;" parent="1" vertex="1">
          <mxGeometry x="350" y="90" width="120" height="60" as="geometry" />
        </mxCell>
        <mxCell id="EwY4-3odsnmblzUQ6dtj-5" style="edgeStyle=orthogonalEdgeStyle;rounded=0;orthogonalLoop=1;jettySize=auto;html=1;exitX=0.5;exitY=1;exitDx=0;exitDy=0;" parent="1" source="EwY4-3odsnmblzUQ6dtj-6" edge="1">
          <mxGeometry relative="1" as="geometry">
            <mxPoint x="414" y="280" as="targetPoint" />
          </mxGeometry>
        </mxCell>
        <mxCell id="EwY4-3odsnmblzUQ6dtj-6" value="&amp;nbsp; &amp;nbsp; cout &amp;lt;&amp;lt; &quot;Введіть поточні погодні умови (sunny, rainy, cloudy, snowy, windy): &quot;;" style="shape=parallelogram;perimeter=parallelogramPerimeter;whiteSpace=wrap;html=1;fixedSize=1;" parent="1" vertex="1">
          <mxGeometry x="324" y="180" width="180" height="60" as="geometry" />
        </mxCell>
        <mxCell id="EwY4-3odsnmblzUQ6dtj-8" style="edgeStyle=orthogonalEdgeStyle;rounded=0;orthogonalLoop=1;jettySize=auto;html=1;exitX=0.5;exitY=1;exitDx=0;exitDy=0;" parent="1" source="EwY4-3odsnmblzUQ6dtj-7" edge="1">
          <mxGeometry relative="1" as="geometry">
            <mxPoint x="414" y="360" as="targetPoint" />
          </mxGeometry>
        </mxCell>
        <mxCell id="EwY4-3odsnmblzUQ6dtj-7" value="cin &amp;gt;&amp;gt; weather;" style="shape=parallelogram;perimeter=parallelogramPerimeter;whiteSpace=wrap;html=1;fixedSize=1;" parent="1" vertex="1">
          <mxGeometry x="357" y="280" width="114" height="50" as="geometry" />
        </mxCell>
        <mxCell id="EwY4-3odsnmblzUQ6dtj-11" style="edgeStyle=orthogonalEdgeStyle;rounded=0;orthogonalLoop=1;jettySize=auto;html=1;" parent="1" edge="1">
          <mxGeometry relative="1" as="geometry">
            <mxPoint x="212.5" y="460" as="targetPoint" />
            <mxPoint x="300" y="405" as="sourcePoint" />
            <Array as="points">
              <mxPoint x="213.5" y="405" />
            </Array>
          </mxGeometry>
        </mxCell>
        <mxCell id="EwY4-3odsnmblzUQ6dtj-14" value="True" style="edgeLabel;html=1;align=center;verticalAlign=middle;resizable=0;points=[];" parent="EwY4-3odsnmblzUQ6dtj-11" vertex="1" connectable="0">
          <mxGeometry x="-0.7025" y="-2" relative="1" as="geometry">
            <mxPoint as="offset" />
          </mxGeometry>
        </mxCell>
        <mxCell id="EwY4-3odsnmblzUQ6dtj-12" style="edgeStyle=orthogonalEdgeStyle;rounded=0;orthogonalLoop=1;jettySize=auto;html=1;exitX=1;exitY=0.5;exitDx=0;exitDy=0;" parent="1" source="EwY4-3odsnmblzUQ6dtj-9" edge="1">
          <mxGeometry relative="1" as="geometry">
            <mxPoint x="560" y="460" as="targetPoint" />
            <Array as="points">
              <mxPoint x="560" y="405" />
              <mxPoint x="560" y="405" />
            </Array>
          </mxGeometry>
        </mxCell>
        <mxCell id="EwY4-3odsnmblzUQ6dtj-15" value="False" style="edgeLabel;html=1;align=center;verticalAlign=middle;resizable=0;points=[];" parent="EwY4-3odsnmblzUQ6dtj-12" vertex="1" connectable="0">
          <mxGeometry x="-0.5383" y="2" relative="1" as="geometry">
            <mxPoint as="offset" />
          </mxGeometry>
        </mxCell>
        <mxCell id="EwY4-3odsnmblzUQ6dtj-9" value="&lt;font style=&quot;font-size: 10px;&quot;&gt;(weather != &quot;sunny&quot; &amp;amp;&amp;amp; weather != &quot;rainy&quot; &amp;amp;&amp;amp; weather != &quot;cloudy&quot; &amp;amp;&amp;amp;&amp;nbsp; &amp;nbsp; &amp;nbsp; &amp;nbsp; &amp;nbsp; weather != &quot;snowy&quot; &amp;amp;&amp;amp; weather != &quot;windy&quot;)&lt;/font&gt;" style="rhombus;whiteSpace=wrap;html=1;" parent="1" vertex="1">
          <mxGeometry x="306.88" y="360" width="214.25" height="90" as="geometry" />
        </mxCell>
        <mxCell id="NP0E1pTQFTqrUm1w4Xtf-62" style="edgeStyle=orthogonalEdgeStyle;rounded=0;orthogonalLoop=1;jettySize=auto;html=1;endArrow=none;endFill=0;" parent="1" source="EwY4-3odsnmblzUQ6dtj-17" edge="1">
          <mxGeometry relative="1" as="geometry">
            <mxPoint x="215" y="1610" as="targetPoint" />
          </mxGeometry>
        </mxCell>
        <mxCell id="EwY4-3odsnmblzUQ6dtj-17" value="cout &amp;lt;&amp;lt; &quot;Будь ласка, введіть дійсну погодну умову.&quot;;" style="shape=parallelogram;perimeter=parallelogramPerimeter;whiteSpace=wrap;html=1;fixedSize=1;" parent="1" vertex="1">
          <mxGeometry x="140" y="460" width="150" height="60" as="geometry" />
        </mxCell>
        <mxCell id="EwY4-3odsnmblzUQ6dtj-19" style="edgeStyle=orthogonalEdgeStyle;rounded=0;orthogonalLoop=1;jettySize=auto;html=1;" parent="1" source="EwY4-3odsnmblzUQ6dtj-18" edge="1">
          <mxGeometry relative="1" as="geometry">
            <mxPoint x="460" y="550" as="targetPoint" />
          </mxGeometry>
        </mxCell>
        <mxCell id="EwY4-3odsnmblzUQ6dtj-85" value="True" style="edgeLabel;html=1;align=center;verticalAlign=middle;resizable=0;points=[];" parent="EwY4-3odsnmblzUQ6dtj-19" vertex="1" connectable="0">
          <mxGeometry x="-0.7442" y="-1" relative="1" as="geometry">
            <mxPoint as="offset" />
          </mxGeometry>
        </mxCell>
        <mxCell id="EwY4-3odsnmblzUQ6dtj-20" style="edgeStyle=orthogonalEdgeStyle;rounded=0;orthogonalLoop=1;jettySize=auto;html=1;" parent="1" source="EwY4-3odsnmblzUQ6dtj-18" edge="1">
          <mxGeometry relative="1" as="geometry">
            <mxPoint x="660" y="550" as="targetPoint" />
          </mxGeometry>
        </mxCell>
        <mxCell id="EwY4-3odsnmblzUQ6dtj-84" value="False" style="edgeLabel;html=1;align=center;verticalAlign=middle;resizable=0;points=[];" parent="EwY4-3odsnmblzUQ6dtj-20" vertex="1" connectable="0">
          <mxGeometry x="-0.8022" y="2" relative="1" as="geometry">
            <mxPoint as="offset" />
          </mxGeometry>
        </mxCell>
        <mxCell id="EwY4-3odsnmblzUQ6dtj-18" value="&amp;nbsp;(weather == &quot;rainy&quot; || weather == &quot;snowy&quot;) {" style="rhombus;whiteSpace=wrap;html=1;" parent="1" vertex="1">
          <mxGeometry x="490" y="460" width="143" height="80" as="geometry" />
        </mxCell>
        <mxCell id="EwY4-3odsnmblzUQ6dtj-21" value="cout &amp;lt;&amp;lt; &quot;Одягніть куртку!&quot;;" style="shape=parallelogram;perimeter=parallelogramPerimeter;whiteSpace=wrap;html=1;fixedSize=1;" parent="1" vertex="1">
          <mxGeometry x="400" y="550" width="120" height="60" as="geometry" />
        </mxCell>
        <mxCell id="EwY4-3odsnmblzUQ6dtj-24" style="edgeStyle=orthogonalEdgeStyle;rounded=0;orthogonalLoop=1;jettySize=auto;html=1;endArrow=block;endFill=1;" parent="1" target="EwY4-3odsnmblzUQ6dtj-32" edge="1">
          <mxGeometry relative="1" as="geometry">
            <mxPoint x="620" y="640" as="targetPoint" />
            <mxPoint x="659" y="610" as="sourcePoint" />
            <Array as="points">
              <mxPoint x="659" y="650" />
            </Array>
          </mxGeometry>
        </mxCell>
        <mxCell id="EwY4-3odsnmblzUQ6dtj-22" value="cout &amp;lt;&amp;lt; &quot;Куртка не потрібна.&quot;;" style="shape=parallelogram;perimeter=parallelogramPerimeter;whiteSpace=wrap;html=1;fixedSize=1;" parent="1" vertex="1">
          <mxGeometry x="590" y="550" width="140" height="60" as="geometry" />
        </mxCell>
        <mxCell id="EwY4-3odsnmblzUQ6dtj-30" value="" style="endArrow=none;html=1;rounded=0;" parent="1" edge="1">
          <mxGeometry width="50" height="50" relative="1" as="geometry">
            <mxPoint x="460" y="650" as="sourcePoint" />
            <mxPoint x="460" y="610" as="targetPoint" />
          </mxGeometry>
        </mxCell>
        <mxCell id="EwY4-3odsnmblzUQ6dtj-87" style="edgeStyle=orthogonalEdgeStyle;rounded=0;orthogonalLoop=1;jettySize=auto;html=1;exitX=0.5;exitY=1;exitDx=0;exitDy=0;" parent="1" source="EwY4-3odsnmblzUQ6dtj-32" edge="1">
          <mxGeometry relative="1" as="geometry">
            <mxPoint x="560" y="750" as="targetPoint" />
          </mxGeometry>
        </mxCell>
        <mxCell id="EwY4-3odsnmblzUQ6dtj-94" value="False" style="edgeLabel;html=1;align=center;verticalAlign=middle;resizable=0;points=[];" parent="EwY4-3odsnmblzUQ6dtj-87" vertex="1" connectable="0">
          <mxGeometry x="-0.4574" y="-1" relative="1" as="geometry">
            <mxPoint as="offset" />
          </mxGeometry>
        </mxCell>
        <mxCell id="EwY4-3odsnmblzUQ6dtj-32" value="(weather == &quot;sunny&quot;)" style="rhombus;whiteSpace=wrap;html=1;" parent="1" vertex="1">
          <mxGeometry x="510.25" y="650" width="102.5" height="80" as="geometry" />
        </mxCell>
        <mxCell id="EwY4-3odsnmblzUQ6dtj-35" value="" style="endArrow=classic;html=1;rounded=0;entryX=0.5;entryY=0;entryDx=0;entryDy=0;" parent="1" target="EwY4-3odsnmblzUQ6dtj-32" edge="1">
          <mxGeometry width="50" height="50" relative="1" as="geometry">
            <mxPoint x="460.25" y="650" as="sourcePoint" />
            <mxPoint x="510.25" y="600" as="targetPoint" />
          </mxGeometry>
        </mxCell>
        <mxCell id="EwY4-3odsnmblzUQ6dtj-36" style="edgeStyle=orthogonalEdgeStyle;rounded=0;orthogonalLoop=1;jettySize=auto;html=1;entryX=1;entryY=0.5;entryDx=0;entryDy=0;" parent="1" target="EwY4-3odsnmblzUQ6dtj-39" edge="1">
          <mxGeometry relative="1" as="geometry">
            <mxPoint x="480.25" y="740" as="targetPoint" />
            <mxPoint x="510.25" y="690" as="sourcePoint" />
          </mxGeometry>
        </mxCell>
        <mxCell id="EwY4-3odsnmblzUQ6dtj-86" value="True" style="edgeLabel;html=1;align=center;verticalAlign=middle;resizable=0;points=[];" parent="EwY4-3odsnmblzUQ6dtj-36" vertex="1" connectable="0">
          <mxGeometry x="-0.863" y="-1" relative="1" as="geometry">
            <mxPoint x="-16" y="1" as="offset" />
          </mxGeometry>
        </mxCell>
        <mxCell id="EwY4-3odsnmblzUQ6dtj-39" value="&amp;nbsp;cout &amp;lt;&amp;lt; &quot;Чудовий день для пікніка!&quot;;" style="shape=parallelogram;perimeter=parallelogramPerimeter;whiteSpace=wrap;html=1;fixedSize=1;" parent="1" vertex="1">
          <mxGeometry x="320" y="660" width="144" height="60" as="geometry" />
        </mxCell>
        <mxCell id="NP0E1pTQFTqrUm1w4Xtf-1" style="edgeStyle=orthogonalEdgeStyle;rounded=0;orthogonalLoop=1;jettySize=auto;html=1;exitX=0.5;exitY=1;exitDx=0;exitDy=0;" parent="1" source="EwY4-3odsnmblzUQ6dtj-88" edge="1">
          <mxGeometry relative="1" as="geometry">
            <mxPoint x="562" y="840" as="targetPoint" />
          </mxGeometry>
        </mxCell>
        <mxCell id="NP0E1pTQFTqrUm1w4Xtf-5" value="False" style="edgeLabel;html=1;align=center;verticalAlign=middle;resizable=0;points=[];" parent="NP0E1pTQFTqrUm1w4Xtf-1" vertex="1" connectable="0">
          <mxGeometry x="-0.3272" y="-3" relative="1" as="geometry">
            <mxPoint as="offset" />
          </mxGeometry>
        </mxCell>
        <mxCell id="EwY4-3odsnmblzUQ6dtj-88" value="(weather == &quot;rainy&quot;)" style="rhombus;whiteSpace=wrap;html=1;" parent="1" vertex="1">
          <mxGeometry x="510.25" y="750" width="102.5" height="70" as="geometry" />
        </mxCell>
        <mxCell id="EwY4-3odsnmblzUQ6dtj-91" style="edgeStyle=orthogonalEdgeStyle;rounded=0;orthogonalLoop=1;jettySize=auto;html=1;entryX=1;entryY=0.5;entryDx=0;entryDy=0;" parent="1" target="EwY4-3odsnmblzUQ6dtj-93" edge="1">
          <mxGeometry relative="1" as="geometry">
            <mxPoint x="480.25" y="835" as="targetPoint" />
            <mxPoint x="510.25" y="785" as="sourcePoint" />
          </mxGeometry>
        </mxCell>
        <mxCell id="EwY4-3odsnmblzUQ6dtj-92" value="True" style="edgeLabel;html=1;align=center;verticalAlign=middle;resizable=0;points=[];" parent="EwY4-3odsnmblzUQ6dtj-91" vertex="1" connectable="0">
          <mxGeometry x="-0.863" y="-1" relative="1" as="geometry">
            <mxPoint x="-16" y="1" as="offset" />
          </mxGeometry>
        </mxCell>
        <mxCell id="EwY4-3odsnmblzUQ6dtj-93" value="cout &amp;lt;&amp;lt; &quot;Ідеальна погода, щоб читати книгу всередині!&quot;;" style="shape=parallelogram;perimeter=parallelogramPerimeter;whiteSpace=wrap;html=1;fixedSize=1;" parent="1" vertex="1">
          <mxGeometry x="240" y="755" width="224" height="55" as="geometry" />
        </mxCell>
        <mxCell id="NP0E1pTQFTqrUm1w4Xtf-6" style="edgeStyle=orthogonalEdgeStyle;rounded=0;orthogonalLoop=1;jettySize=auto;html=1;" parent="1" source="NP0E1pTQFTqrUm1w4Xtf-2" target="NP0E1pTQFTqrUm1w4Xtf-7" edge="1">
          <mxGeometry relative="1" as="geometry">
            <mxPoint x="460" y="870" as="targetPoint" />
          </mxGeometry>
        </mxCell>
        <mxCell id="NP0E1pTQFTqrUm1w4Xtf-9" value="True" style="edgeLabel;html=1;align=center;verticalAlign=middle;resizable=0;points=[];" parent="NP0E1pTQFTqrUm1w4Xtf-6" vertex="1" connectable="0">
          <mxGeometry x="-0.1045" y="1" relative="1" as="geometry">
            <mxPoint as="offset" />
          </mxGeometry>
        </mxCell>
        <mxCell id="NP0E1pTQFTqrUm1w4Xtf-8" style="edgeStyle=orthogonalEdgeStyle;rounded=0;orthogonalLoop=1;jettySize=auto;html=1;" parent="1" source="NP0E1pTQFTqrUm1w4Xtf-2" edge="1">
          <mxGeometry relative="1" as="geometry">
            <mxPoint x="561.4949999999999" y="920" as="targetPoint" />
            <Array as="points">
              <mxPoint x="561" y="910" />
              <mxPoint x="561" y="910" />
            </Array>
          </mxGeometry>
        </mxCell>
        <mxCell id="NP0E1pTQFTqrUm1w4Xtf-10" value="False" style="edgeLabel;html=1;align=center;verticalAlign=middle;resizable=0;points=[];" parent="NP0E1pTQFTqrUm1w4Xtf-8" vertex="1" connectable="0">
          <mxGeometry x="-0.5197" y="-1" relative="1" as="geometry">
            <mxPoint as="offset" />
          </mxGeometry>
        </mxCell>
        <mxCell id="NP0E1pTQFTqrUm1w4Xtf-2" value="(weather == &quot;cloudy&quot;)" style="rhombus;whiteSpace=wrap;html=1;" parent="1" vertex="1">
          <mxGeometry x="515.12" y="840" width="92.75" height="60" as="geometry" />
        </mxCell>
        <mxCell id="NP0E1pTQFTqrUm1w4Xtf-7" value="cout &amp;lt;&amp;lt; &quot;Може, відвідати музей?&quot;;" style="shape=parallelogram;perimeter=parallelogramPerimeter;whiteSpace=wrap;html=1;fixedSize=1;" parent="1" vertex="1">
          <mxGeometry x="260" y="840" width="184" height="60" as="geometry" />
        </mxCell>
        <mxCell id="NP0E1pTQFTqrUm1w4Xtf-12" style="edgeStyle=orthogonalEdgeStyle;rounded=0;orthogonalLoop=1;jettySize=auto;html=1;" parent="1" source="NP0E1pTQFTqrUm1w4Xtf-11" target="NP0E1pTQFTqrUm1w4Xtf-13" edge="1">
          <mxGeometry relative="1" as="geometry">
            <mxPoint x="440" y="950" as="targetPoint" />
          </mxGeometry>
        </mxCell>
        <mxCell id="NP0E1pTQFTqrUm1w4Xtf-14" value="True" style="edgeLabel;html=1;align=center;verticalAlign=middle;resizable=0;points=[];" parent="NP0E1pTQFTqrUm1w4Xtf-12" vertex="1" connectable="0">
          <mxGeometry x="-0.2246" y="2" relative="1" as="geometry">
            <mxPoint as="offset" />
          </mxGeometry>
        </mxCell>
        <mxCell id="NP0E1pTQFTqrUm1w4Xtf-15" style="edgeStyle=orthogonalEdgeStyle;rounded=0;orthogonalLoop=1;jettySize=auto;html=1;" parent="1" source="NP0E1pTQFTqrUm1w4Xtf-11" edge="1">
          <mxGeometry relative="1" as="geometry">
            <mxPoint x="562.1199999999999" y="1000" as="targetPoint" />
          </mxGeometry>
        </mxCell>
        <mxCell id="NP0E1pTQFTqrUm1w4Xtf-20" value="False" style="edgeLabel;html=1;align=center;verticalAlign=middle;resizable=0;points=[];" parent="NP0E1pTQFTqrUm1w4Xtf-15" vertex="1" connectable="0">
          <mxGeometry x="-0.2497" y="1" relative="1" as="geometry">
            <mxPoint y="4" as="offset" />
          </mxGeometry>
        </mxCell>
        <mxCell id="NP0E1pTQFTqrUm1w4Xtf-11" value="(weather == &quot;snowy&quot;)" style="rhombus;whiteSpace=wrap;html=1;" parent="1" vertex="1">
          <mxGeometry x="516.37" y="920" width="91.5" height="60" as="geometry" />
        </mxCell>
        <mxCell id="NP0E1pTQFTqrUm1w4Xtf-13" value="&amp;nbsp;cout &amp;lt;&amp;lt; &quot;Як щодо того, щоб зліпити сніговика?&quot;;" style="shape=parallelogram;perimeter=parallelogramPerimeter;whiteSpace=wrap;html=1;fixedSize=1;" parent="1" vertex="1">
          <mxGeometry x="240" y="920" width="186.88" height="60" as="geometry" />
        </mxCell>
        <mxCell id="NP0E1pTQFTqrUm1w4Xtf-17" style="edgeStyle=orthogonalEdgeStyle;rounded=0;orthogonalLoop=1;jettySize=auto;html=1;" parent="1" source="NP0E1pTQFTqrUm1w4Xtf-16" target="NP0E1pTQFTqrUm1w4Xtf-18" edge="1">
          <mxGeometry relative="1" as="geometry">
            <mxPoint x="440" y="1030" as="targetPoint" />
          </mxGeometry>
        </mxCell>
        <mxCell id="NP0E1pTQFTqrUm1w4Xtf-19" value="True" style="edgeLabel;html=1;align=center;verticalAlign=middle;resizable=0;points=[];" parent="NP0E1pTQFTqrUm1w4Xtf-17" vertex="1" connectable="0">
          <mxGeometry x="-0.0106" y="2" relative="1" as="geometry">
            <mxPoint as="offset" />
          </mxGeometry>
        </mxCell>
        <mxCell id="NP0E1pTQFTqrUm1w4Xtf-22" style="edgeStyle=orthogonalEdgeStyle;rounded=0;orthogonalLoop=1;jettySize=auto;html=1;exitX=0.5;exitY=1;exitDx=0;exitDy=0;" parent="1" source="NP0E1pTQFTqrUm1w4Xtf-16" edge="1">
          <mxGeometry relative="1" as="geometry">
            <mxPoint x="562" y="1090" as="targetPoint" />
          </mxGeometry>
        </mxCell>
        <mxCell id="NP0E1pTQFTqrUm1w4Xtf-23" value="False" style="edgeLabel;html=1;align=center;verticalAlign=middle;resizable=0;points=[];" parent="NP0E1pTQFTqrUm1w4Xtf-22" vertex="1" connectable="0">
          <mxGeometry x="-0.1453" y="-1" relative="1" as="geometry">
            <mxPoint as="offset" />
          </mxGeometry>
        </mxCell>
        <mxCell id="NP0E1pTQFTqrUm1w4Xtf-16" value="(weather == &quot;windy&quot;)" style="rhombus;whiteSpace=wrap;html=1;" parent="1" vertex="1">
          <mxGeometry x="516.37" y="1000" width="92.13" height="60" as="geometry" />
        </mxCell>
        <mxCell id="NP0E1pTQFTqrUm1w4Xtf-18" value="cout &amp;lt;&amp;lt; &quot;Запустіть повітряного змія, якщо він у вас є!&quot;;" style="shape=parallelogram;perimeter=parallelogramPerimeter;whiteSpace=wrap;html=1;fixedSize=1;" parent="1" vertex="1">
          <mxGeometry x="240" y="1000" width="170" height="60" as="geometry" />
        </mxCell>
        <mxCell id="NP0E1pTQFTqrUm1w4Xtf-26" style="edgeStyle=orthogonalEdgeStyle;rounded=0;orthogonalLoop=1;jettySize=auto;html=1;" parent="1" source="NP0E1pTQFTqrUm1w4Xtf-25" edge="1">
          <mxGeometry relative="1" as="geometry">
            <mxPoint x="562.4300000000001" y="1170" as="targetPoint" />
          </mxGeometry>
        </mxCell>
        <mxCell id="NP0E1pTQFTqrUm1w4Xtf-25" value="switch (weather[1])" style="rounded=0;whiteSpace=wrap;html=1;" parent="1" vertex="1">
          <mxGeometry x="511.68" y="1090" width="101.5" height="50" as="geometry" />
        </mxCell>
        <mxCell id="NP0E1pTQFTqrUm1w4Xtf-30" style="edgeStyle=orthogonalEdgeStyle;rounded=0;orthogonalLoop=1;jettySize=auto;html=1;" parent="1" source="NP0E1pTQFTqrUm1w4Xtf-27" target="NP0E1pTQFTqrUm1w4Xtf-31" edge="1">
          <mxGeometry relative="1" as="geometry">
            <mxPoint x="650" y="1200" as="targetPoint" />
          </mxGeometry>
        </mxCell>
        <mxCell id="NP0E1pTQFTqrUm1w4Xtf-32" value="True" style="edgeLabel;html=1;align=center;verticalAlign=middle;resizable=0;points=[];" parent="NP0E1pTQFTqrUm1w4Xtf-30" vertex="1" connectable="0">
          <mxGeometry x="0.2998" y="4" relative="1" as="geometry">
            <mxPoint as="offset" />
          </mxGeometry>
        </mxCell>
        <mxCell id="NP0E1pTQFTqrUm1w4Xtf-33" style="edgeStyle=orthogonalEdgeStyle;rounded=0;orthogonalLoop=1;jettySize=auto;html=1;exitX=0;exitY=0.5;exitDx=0;exitDy=0;entryX=0.5;entryY=0;entryDx=0;entryDy=0;" parent="1" source="NP0E1pTQFTqrUm1w4Xtf-27" target="NP0E1pTQFTqrUm1w4Xtf-34" edge="1">
          <mxGeometry relative="1" as="geometry">
            <mxPoint x="490" y="1200" as="targetPoint" />
          </mxGeometry>
        </mxCell>
        <mxCell id="NP0E1pTQFTqrUm1w4Xtf-27" value="case &#39;u&#39;:" style="rhombus;whiteSpace=wrap;html=1;" parent="1" vertex="1">
          <mxGeometry x="521.22" y="1170" width="82.43" height="60" as="geometry" />
        </mxCell>
        <mxCell id="NP0E1pTQFTqrUm1w4Xtf-56" style="edgeStyle=orthogonalEdgeStyle;rounded=0;orthogonalLoop=1;jettySize=auto;html=1;endArrow=block;endFill=1;startArrow=none;startFill=0;" parent="1" source="NP0E1pTQFTqrUm1w4Xtf-31" edge="1">
          <mxGeometry relative="1" as="geometry">
            <mxPoint x="840" y="1530" as="targetPoint" />
          </mxGeometry>
        </mxCell>
        <mxCell id="NP0E1pTQFTqrUm1w4Xtf-31" value="cout &amp;lt;&amp;lt; &quot;Взуй улюблені кросівки!&quot;;" style="shape=parallelogram;perimeter=parallelogramPerimeter;whiteSpace=wrap;html=1;fixedSize=1;" parent="1" vertex="1">
          <mxGeometry x="633" y="1170" width="167" height="60" as="geometry" />
        </mxCell>
        <mxCell id="NP0E1pTQFTqrUm1w4Xtf-38" style="edgeStyle=orthogonalEdgeStyle;rounded=0;orthogonalLoop=1;jettySize=auto;html=1;entryX=0;entryY=0.5;entryDx=0;entryDy=0;" parent="1" source="NP0E1pTQFTqrUm1w4Xtf-34" target="NP0E1pTQFTqrUm1w4Xtf-37" edge="1">
          <mxGeometry relative="1" as="geometry" />
        </mxCell>
        <mxCell id="NP0E1pTQFTqrUm1w4Xtf-68" value="True" style="edgeLabel;html=1;align=center;verticalAlign=middle;resizable=0;points=[];" parent="NP0E1pTQFTqrUm1w4Xtf-38" vertex="1" connectable="0">
          <mxGeometry x="-0.2436" relative="1" as="geometry">
            <mxPoint as="offset" />
          </mxGeometry>
        </mxCell>
        <mxCell id="NP0E1pTQFTqrUm1w4Xtf-39" style="edgeStyle=orthogonalEdgeStyle;rounded=0;orthogonalLoop=1;jettySize=auto;html=1;exitX=0;exitY=0.5;exitDx=0;exitDy=0;" parent="1" source="NP0E1pTQFTqrUm1w4Xtf-34" edge="1">
          <mxGeometry relative="1" as="geometry">
            <mxPoint x="410" y="1310" as="targetPoint" />
          </mxGeometry>
        </mxCell>
        <mxCell id="NP0E1pTQFTqrUm1w4Xtf-34" value="&amp;nbsp;case &#39;n&#39;" style="rhombus;whiteSpace=wrap;html=1;" parent="1" vertex="1">
          <mxGeometry x="450" y="1240" width="80" height="60" as="geometry" />
        </mxCell>
        <mxCell id="NP0E1pTQFTqrUm1w4Xtf-57" style="edgeStyle=orthogonalEdgeStyle;rounded=0;orthogonalLoop=1;jettySize=auto;html=1;endArrow=none;endFill=0;" parent="1" source="NP0E1pTQFTqrUm1w4Xtf-37" edge="1">
          <mxGeometry relative="1" as="geometry">
            <mxPoint x="840" y="1270" as="targetPoint" />
          </mxGeometry>
        </mxCell>
        <mxCell id="NP0E1pTQFTqrUm1w4Xtf-37" value="&amp;nbsp;cout &amp;lt;&amp;lt; &quot;Снігові черевики зігріють ваші ноги!&quot;;" style="shape=parallelogram;perimeter=parallelogramPerimeter;whiteSpace=wrap;html=1;fixedSize=1;" parent="1" vertex="1">
          <mxGeometry x="575" y="1242.5" width="170" height="55" as="geometry" />
        </mxCell>
        <mxCell id="NP0E1pTQFTqrUm1w4Xtf-41" style="edgeStyle=orthogonalEdgeStyle;rounded=0;orthogonalLoop=1;jettySize=auto;html=1;exitX=1;exitY=0.5;exitDx=0;exitDy=0;" parent="1" source="NP0E1pTQFTqrUm1w4Xtf-40" target="NP0E1pTQFTqrUm1w4Xtf-42" edge="1">
          <mxGeometry relative="1" as="geometry">
            <mxPoint x="510" y="1340" as="targetPoint" />
          </mxGeometry>
        </mxCell>
        <mxCell id="NP0E1pTQFTqrUm1w4Xtf-69" value="True" style="edgeLabel;html=1;align=center;verticalAlign=middle;resizable=0;points=[];" parent="NP0E1pTQFTqrUm1w4Xtf-41" vertex="1" connectable="0">
          <mxGeometry x="-0.0575" relative="1" as="geometry">
            <mxPoint as="offset" />
          </mxGeometry>
        </mxCell>
        <mxCell id="NP0E1pTQFTqrUm1w4Xtf-46" style="edgeStyle=orthogonalEdgeStyle;rounded=0;orthogonalLoop=1;jettySize=auto;html=1;" parent="1" source="NP0E1pTQFTqrUm1w4Xtf-40" edge="1">
          <mxGeometry relative="1" as="geometry">
            <mxPoint x="340" y="1380" as="targetPoint" />
          </mxGeometry>
        </mxCell>
        <mxCell id="NP0E1pTQFTqrUm1w4Xtf-40" value="&amp;nbsp;case &#39;a&#39;" style="rhombus;whiteSpace=wrap;html=1;" parent="1" vertex="1">
          <mxGeometry x="365" y="1310" width="90" height="60" as="geometry" />
        </mxCell>
        <mxCell id="NP0E1pTQFTqrUm1w4Xtf-58" style="edgeStyle=orthogonalEdgeStyle;rounded=0;orthogonalLoop=1;jettySize=auto;html=1;endArrow=none;endFill=0;" parent="1" source="NP0E1pTQFTqrUm1w4Xtf-42" edge="1">
          <mxGeometry relative="1" as="geometry">
            <mxPoint x="840" y="1340" as="targetPoint" />
          </mxGeometry>
        </mxCell>
        <mxCell id="NP0E1pTQFTqrUm1w4Xtf-42" value="cout &amp;lt;&amp;lt; &quot;Дощові чоботи - гарна ідея!&quot;;" style="shape=parallelogram;perimeter=parallelogramPerimeter;whiteSpace=wrap;html=1;fixedSize=1;" parent="1" vertex="1">
          <mxGeometry x="493.18" y="1315" width="126.82" height="50" as="geometry" />
        </mxCell>
        <mxCell id="NP0E1pTQFTqrUm1w4Xtf-48" style="edgeStyle=orthogonalEdgeStyle;rounded=0;orthogonalLoop=1;jettySize=auto;html=1;" parent="1" source="NP0E1pTQFTqrUm1w4Xtf-47" edge="1">
          <mxGeometry relative="1" as="geometry">
            <mxPoint x="430" y="1411" as="targetPoint" />
          </mxGeometry>
        </mxCell>
        <mxCell id="NP0E1pTQFTqrUm1w4Xtf-70" value="True" style="edgeLabel;html=1;align=center;verticalAlign=middle;resizable=0;points=[];" parent="NP0E1pTQFTqrUm1w4Xtf-48" vertex="1" connectable="0">
          <mxGeometry x="-0.2616" y="1" relative="1" as="geometry">
            <mxPoint as="offset" />
          </mxGeometry>
        </mxCell>
        <mxCell id="NP0E1pTQFTqrUm1w4Xtf-52" style="edgeStyle=orthogonalEdgeStyle;rounded=0;orthogonalLoop=1;jettySize=auto;html=1;" parent="1" source="NP0E1pTQFTqrUm1w4Xtf-47" edge="1">
          <mxGeometry relative="1" as="geometry">
            <mxPoint x="273" y="1450" as="targetPoint" />
            <Array as="points">
              <mxPoint x="274" y="1411" />
            </Array>
          </mxGeometry>
        </mxCell>
        <mxCell id="NP0E1pTQFTqrUm1w4Xtf-47" value="case &#39;l&#39;:" style="rhombus;whiteSpace=wrap;html=1;" parent="1" vertex="1">
          <mxGeometry x="295" y="1381" width="90" height="60" as="geometry" />
        </mxCell>
        <mxCell id="NP0E1pTQFTqrUm1w4Xtf-59" style="edgeStyle=orthogonalEdgeStyle;rounded=0;orthogonalLoop=1;jettySize=auto;html=1;endArrow=none;endFill=0;" parent="1" source="NP0E1pTQFTqrUm1w4Xtf-49" edge="1">
          <mxGeometry relative="1" as="geometry">
            <mxPoint x="840" y="1412.75" as="targetPoint" />
          </mxGeometry>
        </mxCell>
        <mxCell id="NP0E1pTQFTqrUm1w4Xtf-49" value="cout &amp;lt;&amp;lt; &quot;Сьогодні підходить будь-яке взуття.&quot;;" style="shape=parallelogram;perimeter=parallelogramPerimeter;whiteSpace=wrap;html=1;fixedSize=1;" parent="1" vertex="1">
          <mxGeometry x="420" y="1385.5" width="130" height="54.5" as="geometry" />
        </mxCell>
        <mxCell id="NP0E1pTQFTqrUm1w4Xtf-54" style="edgeStyle=orthogonalEdgeStyle;rounded=0;orthogonalLoop=1;jettySize=auto;html=1;" parent="1" source="NP0E1pTQFTqrUm1w4Xtf-53" edge="1">
          <mxGeometry relative="1" as="geometry">
            <mxPoint x="350" y="1480" as="targetPoint" />
          </mxGeometry>
        </mxCell>
        <mxCell id="NP0E1pTQFTqrUm1w4Xtf-53" value="default:" style="rhombus;whiteSpace=wrap;html=1;" parent="1" vertex="1">
          <mxGeometry x="233" y="1450" width="80" height="60" as="geometry" />
        </mxCell>
        <mxCell id="NP0E1pTQFTqrUm1w4Xtf-60" style="edgeStyle=orthogonalEdgeStyle;rounded=0;orthogonalLoop=1;jettySize=auto;html=1;endArrow=none;endFill=0;" parent="1" source="NP0E1pTQFTqrUm1w4Xtf-55" edge="1">
          <mxGeometry relative="1" as="geometry">
            <mxPoint x="840" y="1480" as="targetPoint" />
          </mxGeometry>
        </mxCell>
        <mxCell id="NP0E1pTQFTqrUm1w4Xtf-71" value="" style="edgeStyle=orthogonalEdgeStyle;rounded=0;orthogonalLoop=1;jettySize=auto;html=1;endArrow=none;endFill=0;" parent="1" source="NP0E1pTQFTqrUm1w4Xtf-55" target="NP0E1pTQFTqrUm1w4Xtf-53" edge="1">
          <mxGeometry relative="1" as="geometry" />
        </mxCell>
        <mxCell id="NP0E1pTQFTqrUm1w4Xtf-72" value="True" style="edgeLabel;html=1;align=center;verticalAlign=middle;resizable=0;points=[];" parent="NP0E1pTQFTqrUm1w4Xtf-71" vertex="1" connectable="0">
          <mxGeometry x="0.4983" y="6" relative="1" as="geometry">
            <mxPoint as="offset" />
          </mxGeometry>
        </mxCell>
        <mxCell id="NP0E1pTQFTqrUm1w4Xtf-55" value="cout &amp;lt;&amp;lt; &quot;Одягніть щось міцне!&quot; ;" style="shape=parallelogram;perimeter=parallelogramPerimeter;whiteSpace=wrap;html=1;fixedSize=1;" parent="1" vertex="1">
          <mxGeometry x="344" y="1450" width="156" height="60" as="geometry" />
        </mxCell>
        <mxCell id="NP0E1pTQFTqrUm1w4Xtf-61" value="break" style="rounded=0;whiteSpace=wrap;html=1;" parent="1" vertex="1">
          <mxGeometry x="790" y="1530" width="100" height="40" as="geometry" />
        </mxCell>
        <mxCell id="NP0E1pTQFTqrUm1w4Xtf-67" style="edgeStyle=orthogonalEdgeStyle;rounded=0;orthogonalLoop=1;jettySize=auto;html=1;startArrow=block;startFill=1;endArrow=none;endFill=0;" parent="1" edge="1">
          <mxGeometry relative="1" as="geometry">
            <mxPoint x="215" y="1609" as="targetPoint" />
            <mxPoint x="790" y="1609" as="sourcePoint" />
            <Array as="points">
              <mxPoint x="503" y="1609" />
              <mxPoint x="215" y="1610" />
            </Array>
          </mxGeometry>
        </mxCell>
        <mxCell id="b6DS1NHKn0ycwv38_FfU-3" value="" style="edgeStyle=orthogonalEdgeStyle;rounded=0;orthogonalLoop=1;jettySize=auto;html=1;" edge="1" parent="1" source="NP0E1pTQFTqrUm1w4Xtf-61" target="NP0E1pTQFTqrUm1w4Xtf-65">
          <mxGeometry relative="1" as="geometry">
            <mxPoint x="840" y="1610" as="targetPoint" />
            <mxPoint x="840" y="1570" as="sourcePoint" />
          </mxGeometry>
        </mxCell>
        <mxCell id="NP0E1pTQFTqrUm1w4Xtf-65" value="End" style="rounded=1;whiteSpace=wrap;html=1;" parent="1" vertex="1">
          <mxGeometry x="785" y="1590" width="110" height="40" as="geometry" />
        </mxCell>
      </root>
    </mxGraphModel>
  </diagram>
</mxfile>
